<svg xmlns="http://www.w3.org/2000/svg" xmlns:xlink="http://www.w3.org/1999/xlink" viewBox="0 0 512 512" width="512" height="512" preserveAspectRatio="xMidYMid meet" style="width: 100%; height: 100%; transform: translate3d(0px, 0px, 0px); content-visibility: visible;"><defs><clipPath id="__lottie_element_2"><rect width="512" height="512" x="0" y="0"/></clipPath><linearGradient id="__lottie_element_8" spreadMethod="pad" gradientUnits="userSpaceOnUse" x1="-136.8251953125" y1="-41.8913459777832" x2="92.54612731933594" y2="52.95659255981445"><stop offset="0%" stop-color="rgb(94,92,107)"/><stop offset="60%" stop-color="rgb(64,62,75)"/><stop offset="100%" stop-color="rgb(34,33,43)"/></linearGradient><linearGradient id="__lottie_element_9" spreadMethod="pad" gradientUnits="userSpaceOnUse" x1="8.899552345275879" y1="-44.294288635253906" x2="14.962237358093262" y2="-124.81477355957031"><stop offset="0%" stop-color="rgb(88,86,104)" stop-opacity="0"/><stop offset="46%" stop-color="rgb(88,86,104)" stop-opacity="0.5"/><stop offset="76%" stop-color="rgb(88,86,104)" stop-opacity="1"/></linearGradient><linearGradient id="__lottie_element_10" spreadMethod="pad" gradientUnits="userSpaceOnUse" x1="-56.55170822143555" y1="-16.656259536743164" x2="26.713754653930664" y2="0.2652592360973358"><stop offset="0%" stop-color="rgb(129,129,150)" stop-opacity="1"/><stop offset="60%" stop-color="rgb(114,114,134)" stop-opacity="0.5"/><stop offset="100%" stop-color="rgb(100,99,117)" stop-opacity="0"/></linearGradient><linearGradient id="__lottie_element_11" spreadMethod="pad" gradientUnits="userSpaceOnUse" x1="82.24089050292969" y1="-87.79906463623047" x2="96.72732543945312" y2="-85.82727813720703"><stop offset="0%" stop-color="rgb(72,70,91)"/><stop offset="50%" stop-color="rgb(43,41,58)"/><stop offset="100%" stop-color="rgb(14,11,25)"/></linearGradient><linearGradient id="__lottie_element_14" spreadMethod="pad" gradientUnits="userSpaceOnUse" x1="0.2840000092983246" y1="1.8179999589920044" x2="0.35199999809265137" y2="-9.303000450134277"><stop offset="21%" stop-color="rgb(62,59,71)"/><stop offset="61%" stop-color="rgb(116,114,127)"/><stop offset="83%" stop-color="rgb(169,169,183)"/></linearGradient><linearGradient id="__lottie_element_18" spreadMethod="pad" gradientUnits="userSpaceOnUse" x1="-33.61591720581055" y1="-101.17637634277344" x2="6.705965518951416" y2="42.66362380981445"><stop offset="0%" stop-color="rgb(48,46,58)"/><stop offset="63%" stop-color="rgb(35,33,44)"/><stop offset="100%" stop-color="rgb(22,21,30)"/></linearGradient><linearGradient id="__lottie_element_19" spreadMethod="pad" gradientUnits="userSpaceOnUse" x1="-54.377288818359375" y1="-184.94677734375" x2="-4.238860130310059" y2="-21.326221466064453"><stop offset="0%" stop-color="rgb(86,84,104)"/><stop offset="53%" stop-color="rgb(68,66,82)"/><stop offset="89%" stop-color="rgb(49,47,61)"/></linearGradient><linearGradient id="__lottie_element_23" spreadMethod="pad" gradientUnits="userSpaceOnUse" x1="2.310448408126831" y1="-17.436067581176758" x2="41.37610626220703" y2="28.814620971679688"><stop offset="0%" stop-color="rgb(255,255,255)"/><stop offset="42%" stop-color="rgb(199,199,211)"/><stop offset="91%" stop-color="rgb(144,144,168)"/></linearGradient><linearGradient id="__lottie_element_28" spreadMethod="pad" gradientUnits="userSpaceOnUse" x1="9.679034233093262" y1="27.213823318481445" x2="109.6457290649414" y2="7.723724842071533"><stop offset="0%" stop-color="rgb(62,59,71)"/><stop offset="42%" stop-color="rgb(47,45,57)"/><stop offset="100%" stop-color="rgb(33,31,42)"/></linearGradient><linearGradient id="__lottie_element_29" spreadMethod="pad" gradientUnits="userSpaceOnUse" x1="-28.4204044342041" y1="-41.5428352355957" x2="49.925540924072266" y2="-6.780624866485596"><stop offset="0%" stop-color="rgb(125,125,147)" stop-opacity="1"/><stop offset="60%" stop-color="rgb(112,112,132)" stop-opacity="0.5"/><stop offset="100%" stop-color="rgb(100,99,117)" stop-opacity="0"/></linearGradient><linearGradient id="__lottie_element_30" spreadMethod="pad" gradientUnits="userSpaceOnUse" x1="53.358978271484375" y1="-34.87108612060547" x2="108.38883209228516" y2="-32.165157318115234"><stop offset="0%" stop-color="rgb(72,70,91)"/><stop offset="50%" stop-color="rgb(43,41,58)"/><stop offset="100%" stop-color="rgb(14,11,25)"/></linearGradient><linearGradient id="__lottie_element_33" spreadMethod="pad" gradientUnits="userSpaceOnUse" x1="9.909991264343262" y1="32.56571578979492" x2="-1.1606007814407349" y2="6.094244956970215"><stop offset="31%" stop-color="rgb(39,38,48)"/><stop offset="66%" stop-color="rgb(30,28,39)"/><stop offset="100%" stop-color="rgb(20,17,30)"/></linearGradient><linearGradient id="__lottie_element_37" spreadMethod="pad" gradientUnits="userSpaceOnUse" x1="-61.38082504272461" y1="-13.11844539642334" x2="114.79487609863281" y2="24.131303787231445"><stop offset="2%" stop-color="rgb(147,147,163)"/><stop offset="51%" stop-color="rgb(90,90,103)"/><stop offset="100%" stop-color="rgb(33,32,43)"/></linearGradient><linearGradient id="__lottie_element_38" spreadMethod="pad" gradientUnits="userSpaceOnUse" x1="92.6565933227539" y1="27.937705993652344" x2="115.22760009765625" y2="36.45235061645508"><stop offset="0%" stop-color="rgb(64,61,79)"/><stop offset="50%" stop-color="rgb(42,39,55)"/><stop offset="100%" stop-color="rgb(20,17,30)"/></linearGradient><linearGradient id="__lottie_element_42" spreadMethod="pad" gradientUnits="userSpaceOnUse" x1="40.93199920654297" y1="-27.339000701904297" x2="30.94099998474121" y2="13.069000244140625"><stop offset="0%" stop-color="rgb(20,17,30)"/><stop offset="50%" stop-color="rgb(33,30,44)"/><stop offset="100%" stop-color="rgb(46,44,58)"/></linearGradient></defs><g clip-path="url(#__lottie_element_2)"><g transform="matrix(0.9947106242179871,-0.10271719098091125,0.10271719098091125,0.9947106242179871,239.0738983154297,345.4417419433594)" opacity="1" style="display: none;"><g opacity="1" transform="matrix(1,0,0,1,0,0)"><path fill="url(#__lottie_element_42)" fill-opacity="1" d=" M-38.5743408203125,-101.784423828125 C-100.94011688232422,-99.39545440673828 -89.47005462646484,-67.0333251953125 -81.79328918457031,-62.198936462402344 C-60.76780319213867,-48.95785140991211 -1.635586142539978,-31.127153396606445 26.8127498626709,-30.403589248657227 C29.543542861938477,-30.33444595336914 32.06414031982422,-34.62290954589844 31.32872772216797,-32.228878021240234 C47.360137939453125,-28.422683715820312 98.89803314208984,-11.043858528137207 140.06103515625,-11.334092140197754 C139.4153289794922,-14.368874549865723 141.20571899414062,-8.95448112487793 142.91197204589844,-9.023775100708008 C180.75833129882812,-3.3574814796447754 209.21595764160156,-11.008637428283691 210.7443084716797,-18.920339584350586 C212.61460876464844,-33.216064453125 121.0373306274414,-70.65723419189453 121.0373306274414,-70.65723419189453 C121.0373306274414,-70.65723419189453 157.0189208984375,-40.86524963378906 128.2913055419922,-35.33567428588867 C101.8546142578125,-30.282825469970703 49.68385696411133,-40.59058380126953 45.39502716064453,-43.69502639770508 C25.312763214111328,-57.36859130859375 73.57752990722656,-78.34294128417969 73.57752990722656,-78.34294128417969 C73.57752990722656,-78.34294128417969 23.79143524169922,-104.17338562011719 -38.5743408203125,-101.784423828125z"/></g><g opacity="1" transform="matrix(1,0,0,1,-0.25,3)"><path stroke-linecap="round" stroke-linejoin="round" fill-opacity="0" stroke="rgb(62,62,74)" stroke-opacity="1" stroke-width="7" d=" M121.0373306274414,-70.65723419189453 C121.0373306274414,-70.65723419189453 157.0189208984375,-40.86524963378906 128.2913055419922,-35.33567428588867 C101.8546142578125,-30.282825469970703 49.68385696411133,-40.59058380126953 45.39502716064453,-43.69502639770508 C25.312763214111328,-57.36859130859375 73.57752990722656,-78.34294128417969 73.57752990722656,-78.34294128417969 C73.57752990722656,-78.34294128417969 121.0373306274414,-70.65723419189453 121.0373306274414,-70.65723419189453z"/></g><g opacity="1" transform="matrix(1,0,0,1,0,0)"><path stroke-linecap="round" stroke-linejoin="round" fill-opacity="0" stroke="rgb(20,17,30)" stroke-opacity="1" stroke-width="7" d=" M-38.5743408203125,-101.784423828125 C-100.94011688232422,-99.39545440673828 -89.47005462646484,-67.0333251953125 -81.79328918457031,-62.198936462402344 C-60.76780319213867,-48.95785140991211 -1.635586142539978,-31.127153396606445 26.8127498626709,-30.403589248657227 C29.543542861938477,-30.33444595336914 32.06414031982422,-34.62290954589844 31.32872772216797,-32.228878021240234 C47.360137939453125,-28.422683715820312 98.89803314208984,-11.043858528137207 140.06103515625,-11.334092140197754 C139.4153289794922,-14.368874549865723 141.20571899414062,-8.95448112487793 142.91197204589844,-9.023775100708008 C180.75833129882812,-3.3574814796447754 209.21595764160156,-11.008637428283691 210.7443084716797,-18.920339584350586 C212.61460876464844,-33.216064453125 121.0373306274414,-70.65723419189453 121.0373306274414,-70.65723419189453 C121.0373306274414,-70.65723419189453 157.0189208984375,-40.86524963378906 128.2913055419922,-35.33567428588867 C101.8546142578125,-30.282825469970703 49.68385696411133,-40.59058380126953 45.39502716064453,-43.69502639770508 C25.312763214111328,-57.36859130859375 73.57752990722656,-78.34294128417969 73.57752990722656,-78.34294128417969 C73.57752990722656,-78.34294128417969 23.79143524169922,-104.17338562011719 -38.5743408203125,-101.784423828125z"/></g></g><g transform="matrix(0.999938428401947,-0.011098824441432953,0.011098824441432953,0.999938428401947,281.4452819824219,106.48605346679688)" opacity="1" style="display: block;"><g opacity="1" transform="matrix(1,0,0,1,0,0)"><path fill="url(#__lottie_element_14)" fill-opacity="1" d=" M16.479000091552734,0 C16.479000091552734,5.291999816894531 9.10099983215332,9.581999778747559 0,9.581999778747559 C-9.10099983215332,9.581999778747559 -16.479000091552734,5.291999816894531 -16.479000091552734,0 C-16.479000091552734,-5.291999816894531 -9.10099983215332,-9.581999778747559 0,-9.581999778747559 C9.10099983215332,-9.581999778747559 16.479000091552734,-5.291999816894531 16.479000091552734,0z"/><path stroke-linecap="round" stroke-linejoin="round" fill-opacity="0" stroke="rgb(64,61,79)" stroke-opacity="1" stroke-width="7" d=" M16.479000091552734,0 C16.479000091552734,5.291999816894531 9.10099983215332,9.581999778747559 0,9.581999778747559 C-9.10099983215332,9.581999778747559 -16.479000091552734,5.291999816894531 -16.479000091552734,0 C-16.479000091552734,-5.291999816894531 -9.10099983215332,-9.581999778747559 0,-9.581999778747559 C9.10099983215332,-9.581999778747559 16.479000091552734,-5.291999816894531 16.479000091552734,0z"/></g></g><g transform="matrix(0.999938428401947,-0.011098824441432953,0.011098824441432953,0.999938428401947,-2.8255367279052734,2.8520565032958984)" opacity="1" style="display: block;"><g opacity="1" transform="matrix(1,0,0,1,416.61700439453125,227.3560028076172)"><path fill="url(#__lottie_element_18)" fill-opacity="1" d=" M17.002283096313477,91.31819152832031 C21.305402755737305,57.88253402709961 37.68095016479492,-85.88533782958984 -71.7257308959961,-112.737548828125 C-62.92906188964844,-69.61854553222656 -27.840106964111328,13.091218948364258 -26.647733688354492,99.39321899414062 C-22.26698112487793,102.05152893066406 -2.9443111419677734,104.3292236328125 7.177693843841553,101.90835571289062 C12.856024742126465,100.5301513671875 16.341882705688477,96.90282440185547 17.002283096313477,91.31819152832031z"/></g><g opacity="1" transform="matrix(1,0,0,1,413.8810119628906,219.98300170898438)"><path fill="url(#__lottie_element_19)" fill-opacity="1" d=" M-10.460062980651855,89.39008331298828 C-10.460062980651855,89.39008331298828 7.425746440887451,8.283551216125488 -19.77989959716797,-64.83374786376953 C-21.027759552001953,-68.3055191040039 -22.07164192199707,-71.9814453125 -19.322595596313477,-69.2722396850586 C-14.814727783203125,-64.93701934814453 -8.828619956970215,-55.84892654418945 -2.2012453079223633,-43.29006576538086 C22.999359130859375,4.43447208404541 16.268070220947266,88.81566619873047 10.937666893005371,101.63438415527344 C9.382326126098633,105.36122131347656 0.5326104164123535,107.64086151123047 -1.237991452217102,107.74220275878906 C-0.0030089356005191803,108.3575668334961 4.676553249359131,109.42318725585938 16.07836151123047,106.4915542602539 C31.96367645263672,84.39533996582031 22.411928176879883,-16.8819580078125 -1.31271493434906,-53.84103775024414 C-24.206178665161133,-89.6407241821289 -66.43689727783203,-103.83108520507812 -66.43689727783203,-103.83108520507812 C-66.43689727783203,-103.83108520507812 5.009835243225098,-65.08355712890625 -10.460062980651855,89.39008331298828z"/></g><g opacity="1" transform="matrix(1,0,0,1,416.61700439453125,227.3560028076172)"><path stroke-linecap="round" stroke-linejoin="round" fill-opacity="0" stroke="rgb(14,11,25)" stroke-opacity="1" stroke-width="7" d=" M17.002283096313477,91.31819152832031 C21.305402755737305,57.88253402709961 37.68095016479492,-85.88533782958984 -71.7257308959961,-112.737548828125 C-62.92906188964844,-69.61854553222656 -27.840106964111328,13.091218948364258 -26.647733688354492,99.39321899414062 C-22.26698112487793,102.05152893066406 -2.9443111419677734,104.3292236328125 7.177693843841553,101.90835571289062 C12.856024742126465,100.5301513671875 16.341882705688477,96.90282440185547 17.002283096313477,91.31819152832031z"/></g></g><g transform="matrix(0.999938428401947,-0.011098824441432953,0.011098824441432953,0.999938428401947,-2.8255367279052734,2.8520565032958984)" opacity="1" style="display: block;"><g opacity="1" transform="matrix(1,0,0,1,258.0150146484375,219.40899658203125)"><path fill="url(#__lottie_element_8)" fill-opacity="1" d=" M142.67288208007812,108.02794647216797 C146.01597595214844,88.62574768066406 167.2043914794922,-53.67655944824219 95.8717041015625,-101.50540161132812 C44.788848876953125,-123.47307586669922 -56.31654739379883,-110.32505798339844 -88.00894927978516,-78.8699951171875 C-131.31646728515625,-34.23393249511719 -126.98902893066406,83.84454345703125 -126.98902893066406,83.84454345703125 C-126.98902893066406,83.84454345703125 114.23993682861328,127.98341369628906 138.27142333984375,105.6676254272461"/><path stroke-linecap="round" stroke-linejoin="round" fill-opacity="0" stroke="rgb(14,11,25)" stroke-opacity="1" stroke-width="7" d=" M142.67288208007812,108.02794647216797 C146.01597595214844,88.62574768066406 167.2043914794922,-53.67655944824219 95.8717041015625,-101.50540161132812 C44.788848876953125,-123.47307586669922 -56.31654739379883,-110.32505798339844 -88.00894927978516,-78.8699951171875 C-131.31646728515625,-34.23393249511719 -126.98902893066406,83.84454345703125 -126.98902893066406,83.84454345703125 C-126.98902893066406,83.84454345703125 114.23993682861328,127.98341369628906 138.27142333984375,105.6676254272461"/></g><g opacity="1" transform="matrix(1,0,0,1,284.22198486328125,216.31900024414062)"><path fill="url(#__lottie_element_9)" fill-opacity="1" d=" M67.0349349975586,-95.41716003417969 C13.591612815856934,-117.09437561035156 -77.46602630615234,-111.67142486572266 -114.21501922607422,-75.77906036376953 C-159.1435546875,-32.019126892089844 71.49042510986328,116.56346130371094 109.98819732666016,105.4375991821289 C117.76773834228516,86.18571472167969 133.99444580078125,-54.364524841308594 67.0349349975586,-95.41716003417969z"/></g><g opacity="1" transform="matrix(1,0,0,1,219.98300170898438,196.06500244140625)"><path fill="url(#__lottie_element_10)" fill-opacity="1" d=" M66.62755584716797,-87.6830062866211 C21.268470764160156,-84.89124298095703 -93.48088836669922,-97.268798828125 -85.89136505126953,105.09943389892578 C-36.85984420776367,95.74463653564453 28.624473571777344,88.91181945800781 28.624473571777344,88.91181945800781 C28.624473571777344,88.91181945800781 18.472530364990234,-29.070816040039062 66.62755584716797,-87.6830062866211z"/></g><g opacity="1" transform="matrix(1,0,0,1,210.33099365234375,201.9550018310547)"><path stroke-linecap="round" stroke-linejoin="round" fill-opacity="0" stroke="rgb(169,169,183)" stroke-opacity="1" stroke-width="7" d=" M58.23704528808594,-95.23819732666016 C22.168825149536133,-93.57869720458984 -13.755217552185059,-82.98847198486328 -35.41178894042969,-60.19160842895508 C-73.62300109863281,-20.22699737548828 -71.07833862304688,99.19617462158203 -71.07833862304688,99.19617462158203"/></g><g opacity="0.3" transform="matrix(1,0,0,1,267.0570068359375,136.5780029296875)"><path stroke-linecap="round" stroke-linejoin="round" fill-opacity="0" stroke="rgb(14,11,25)" stroke-opacity="1" stroke-width="6" d=" M7.492967128753662,-28.812755584716797 C-19.834075927734375,-18.302400588989258 -24.428552627563477,75.82150268554688 -26.94540023803711,131.7054443359375"/></g><g opacity="1" transform="matrix(1,0,0,1,237.81300354003906,202.92999267578125)"><path stroke="url(#__lottie_element_11)" stroke-linecap="round" stroke-linejoin="round" fill-opacity="0" stroke-opacity="1" stroke-width="7" d=" M-106.78702545166016,100.32447814941406 C-106.78702545166016,100.32447814941406 -109.26115417480469,-20.67413330078125 -67.80695343017578,-62.39099884033203 C-39.31134796142578,-91.19222259521484 10.584820747375488,-98.50028228759766 61.00951385498047,-95.92054748535156 C74.33301544189453,-94.72966003417969 87.1579360961914,-94.00439453125 96.44234466552734,-91.39457702636719"/></g></g><g transform="matrix(0.999938428401947,-0.011098824441432953,0.011098824441432953,0.999938428401947,237.5335235595703,208.42213439941406)" opacity="1" style="display: block;"><g opacity="1" transform="matrix(1,0,0,1,0,0)"><path fill="url(#__lottie_element_23)" fill-opacity="1" d=" M-46.09465408325195,-3.818006753921509 C-46.09465408325195,-3.818006753921509 41.98261642456055,-41.3653450012207 41.98261642456055,-41.3653450012207 C45.352500915527344,-42.78632736206055 48.91616439819336,-39.83381652832031 48.31635284423828,-36.11618423461914 C48.31635284423828,-36.11618423461914 36.7625846862793,35.532894134521484 36.7625846862793,35.532894134521484 C35.58946990966797,42.42350769042969 29.81258773803711,43.67391586303711 23.405752182006836,39.073280334472656 C23.405752182006836,39.073280334472656 -4.51849889755249,19.020524978637695 -4.51849889755249,19.020524978637695 C-7.255577087402344,17.054658889770508 -7.534318923950195,12.968035697937012 -5.09195613861084,10.612885475158691 C-5.09195613861084,10.612885475158691 23.465673446655273,-17.19194221496582 23.465673446655273,-17.19194221496582 C25.88045310974121,-19.82274627685547 23.778745651245117,-22.31295394897461 20.130258560180664,-19.603904724121094 C20.130258560180664,-19.603904724121094 -17.314088821411133,6.177086353302002 -17.314088821411133,6.177086353302002 C-21.3121395111084,8.91665267944336 -25.083248138427734,9.648651123046875 -28.73967933654785,8.484427452087402 C-28.73967933654785,8.484427452087402 -45.8092155456543,3.119189977645874 -45.8092155456543,3.119189977645874 C-49.00510787963867,2.102494955062866 -49.194862365722656,-2.5102593898773193 -46.09465408325195,-3.818006753921509z"/></g></g><g transform="matrix(0.999938428401947,-0.011098824441432953,0.011098824441432953,0.999938428401947,122.42401885986328,355.6659240722656)" opacity="1" style="display: block;"><g opacity="1" transform="matrix(1,0,0,1,0,0)"><path fill="url(#__lottie_element_33)" fill-opacity="1" d=" M32.865535736083984,-46.34610366821289 C36.65754699707031,-34.83871841430664 2.2617287635803223,50.18428039550781 -25.26698875427246,37.36405563354492 C-29.34749412536621,33.544776916503906 -14.582725524902344,-5.685830593109131 4.765371799468994,-29.083585739135742 C13.627116203308105,-39.80085372924805 23.451576232910156,-47.19677734375 32.865535736083984,-46.34610366821289z"/><path stroke-linecap="round" stroke-linejoin="round" fill-opacity="0" stroke="rgb(14,11,25)" stroke-opacity="1" stroke-width="7" d=" M32.865535736083984,-46.34610366821289 C36.65754699707031,-34.83871841430664 2.2617287635803223,50.18428039550781 -25.26698875427246,37.36405563354492 C-29.34749412536621,33.544776916503906 -14.582725524902344,-5.685830593109131 4.765371799468994,-29.083585739135742 C13.627116203308105,-39.80085372924805 23.451576232910156,-47.19677734375 32.865535736083984,-46.34610366821289z"/></g></g><g transform="matrix(0.999938428401947,-0.011098824441432953,0.011098824441432953,0.999938428401947,20.721467971801758,5.242120265960693)" opacity="1" style="display: block;"><g opacity="1" transform="matrix(1,0,0,1,221.6439971923828,338.7279968261719)"><path fill="url(#__lottie_element_28)" fill-opacity="1" d=" M-110.42620086669922,-44.506099700927734 C-119.0809555053711,-37.07901382446289 -144.27955627441406,1.257521390914917 -155.016845703125,36.95439910888672 C-153.82130432128906,12.970343589782715 -117.95819091796875,-18.13629913330078 -39.18491744995117,-15.76261043548584 C31.758350372314453,-14.17299747467041 86.83695220947266,55.87739181518555 135.53016662597656,53.47862243652344 C160.6761474609375,52.30315017700195 165.11312866210938,-12.78090763092041 165.11312866210938,-12.78090763092041 C101.01258850097656,-29.675504684448242 16.34038734436035,-114.02901458740234 -110.42620086669922,-44.506099700927734z"/><path stroke-linecap="round" stroke-linejoin="round" fill-opacity="0" stroke="rgb(14,11,25)" stroke-opacity="1" stroke-width="7" d=" M-110.42620086669922,-44.506099700927734 C-119.0809555053711,-37.07901382446289 -144.27955627441406,1.257521390914917 -155.016845703125,36.95439910888672 C-153.82130432128906,12.970343589782715 -117.95819091796875,-18.13629913330078 -39.18491744995117,-15.76261043548584 C31.758350372314453,-14.17299747467041 86.83695220947266,55.87739181518555 135.53016662597656,53.47862243652344 C160.6761474609375,52.30315017700195 165.11312866210938,-12.78090763092041 165.11312866210938,-12.78090763092041 C101.01258850097656,-29.675504684448242 16.34038734436035,-114.02901458740234 -110.42620086669922,-44.506099700927734z"/></g><g opacity="1" transform="matrix(1,0,0,1,198.14300537109375,315.4259948730469)"><path fill="url(#__lottie_element_29)" fill-opacity="1" d=" M67.29138946533203,34.01816940307617 C67.29138946533203,34.01816940307617 59.38700485229492,-29.881671905517578 112.65485382080078,-20.437292098999023 C66.82605743408203,-41.35675811767578 42.922664642333984,-44.9609375 2.9696085453033447,-44.78330612182617 C-26.19881820678711,-44.72374725341797 -70.08309173583984,-31.70734405517578 -86.50052642822266,-21.01162338256836 C-100.64188385009766,-8.331124305725098 -115.8007583618164,18.329065322875977 -132.72763061523438,56.6535530090332 C-73.86580657958984,-23.89870262145996 41.509681701660156,14.78831672668457 67.29138946533203,34.01816940307617z"/></g><g opacity="1" transform="matrix(1,0,0,1,0,0)"><g opacity="0.3" transform="matrix(1,0,0,1,239.31399536132812,337.9389953613281)"><path stroke-linecap="round" stroke-linejoin="round" fill-opacity="0" stroke="rgb(14,11,25)" stroke-opacity="1" stroke-width="6" d=" M136.145263671875,-11.851873397827148 C135.32192993164062,4.049471378326416 123.94276428222656,31.488685607910156 108.01792907714844,30.748680114746094 C72.29258728027344,29.104698181152344 39.53649139404297,-25.769296646118164 -41.75632095336914,-32.37936782836914 C-96.12127685546875,-36.600791931152344 -144.9862823486328,-10.844951629638672 -161.770263671875,8.444991111755371"/></g><g opacity="0.3" transform="matrix(1,0,0,1,234.40699768066406,323.5360107421875)"><path stroke-linecap="round" stroke-linejoin="round" fill-opacity="0" stroke="rgb(14,11,25)" stroke-opacity="1" stroke-width="6" d=" M128.16856384277344,-2.7404346466064453 C126.67618560791016,2.6200027465820312 124.23323059082031,23.859167098999023 106.3293228149414,22.595203399658203 C78.19878387451172,20.727144241333008 -31.225683212280273,-75.84297943115234 -147.8492431640625,5.681021213531494"/></g></g><g opacity="1" transform="matrix(1,0,0,1,138.5189971923828,322.5379943847656)"><path stroke-linecap="round" stroke-linejoin="round" fill-opacity="0" stroke="rgb(220,220,229)" stroke-opacity="0.4" stroke-width="7" d=" M38.98238754272461,-52.20347213745117 C7.255242824554443,-45.41153335571289 -7.664812088012695,-37.014892578125 -19.989273071289062,-27.110315322875977 C-36.310489654541016,-10.835987091064453 -56.137664794921875,29.391494750976562 -62.935035705566406,47.64701461791992"/></g><g opacity="1" transform="matrix(1,0,0,1,133.7689971923828,318.2879943847656)"><path stroke="url(#__lottie_element_30)" stroke-linecap="round" stroke-linejoin="round" fill-opacity="0" stroke-opacity="1" stroke-width="7" d=" M116.82168579101562,-46.488304138183594 C80.27291870117188,-56.9761848449707 15.98572063446045,-51.39012145996094 -22.55026626586914,-24.06516456604004 C-38.871482849121094,-7.790834903717041 -60.09761047363281,32.78439712524414 -66.89498138427734,51.0399169921875"/></g></g><g transform="matrix(0.999938428401947,-0.011098824441432953,0.011098824441432953,0.999938428401947,20.721467971801758,5.242120265960693)" opacity="1" style="display: block;"><g opacity="1" transform="matrix(1,0,0,1,219.63499450683594,360.3320007324219)"><path fill="url(#__lottie_element_37)" fill-opacity="1" d=" M-145.77493286132812,29.882349014282227 C-137.6953887939453,18.58896255493164 -105.66234588623047,-38.59738540649414 -21.646831512451172,-28.291425704956055 C39.256046295166016,-21.779327392578125 100.10795593261719,54.25799560546875 137.80328369140625,44.32883071899414 C163.9634552001953,37.614593505859375 167.37513732910156,-30.531301498413086 167.37513732910156,-30.531301498413086 C167.37513732910156,-30.531301498413086 163.28379821777344,23.676939010620117 136.00009155273438,28.039396286010742 C108.64479064941406,32.358184814453125 43.02699279785156,-37.85689926147461 -17.01171112060547,-44.52996063232422 C-64.8784408569336,-50.39577102661133 -127.65828704833984,-32.665348052978516 -151.830078125,10.751989364624023 C-160.417724609375,26.45049285888672 -145.77493286132812,29.882349014282227 -145.77493286132812,29.882349014282227z"/><path stroke-linecap="round" stroke-linejoin="round" fill-opacity="0" stroke="rgb(20,17,30)" stroke-opacity="1" stroke-width="7" d=" M-145.77493286132812,29.882349014282227 C-137.6953887939453,18.58896255493164 -105.66234588623047,-38.59738540649414 -21.646831512451172,-28.291425704956055 C39.256046295166016,-21.779327392578125 100.10795593261719,54.25799560546875 137.80328369140625,44.32883071899414 C163.9634552001953,37.614593505859375 167.37513732910156,-30.531301498413086 167.37513732910156,-30.531301498413086 C167.37513732910156,-30.531301498413086 163.28379821777344,23.676939010620117 136.00009155273438,28.039396286010742 C108.64479064941406,32.358184814453125 43.02699279785156,-37.85689926147461 -17.01171112060547,-44.52996063232422 C-64.8784408569336,-50.39577102661133 -127.65828704833984,-32.665348052978516 -151.830078125,10.751989364624023 C-160.417724609375,26.45049285888672 -145.77493286132812,29.882349014282227 -145.77493286132812,29.882349014282227z"/></g><g opacity="1" transform="matrix(1,0,0,1,163.77099609375,352.1709899902344)"><path stroke="url(#__lottie_element_38)" stroke-linecap="round" stroke-linejoin="round" fill-opacity="0" stroke-opacity="1" stroke-width="7" d=" M191.8640899658203,36.20039749145508 C163.81671142578125,37.926658630371094 98.25944519042969,-29.22320556640625 38.85228729248047,-36.368961334228516 C-11.949234962463379,-43.118812561035156 -73.45003509521484,-21.691801071166992 -95.8242416381836,18.16223907470703 C-100.1449966430664,25.98786163330078 -99.1777572631836,28.800853729248047 -98.85276794433594,29.941242218017578"/></g></g></g></svg>